{
  "asset": {
    "generator": "Khronos glTF Blender I/O v4.0.44",
    "version": "2.0"
  },
  "scene": 0,
  "scenes": [
    {
      "name": "Scene",
      "nodes": [
        0,
        1,
        2,
        3,
        4,
        5
      ]
    }
  ],
  "nodes": [
    {
      "mesh": 0,
      "name": "Cube",
      "scale": [
        0.3799999952316284,
        0.7099999785423279,
        0.3800000548362732
      ],
      "translation": [
        0,
        1.024240255355835,
        0
      ]
    },
    {
      "mesh": 1,
      "name": "Plane",
      "scale": [
        7.060000419616699,
        1,
        6.980000019073486
      ],
      "translation": [
        -2.3999998569488525,
        0,
        -1.7799999713897705
      ]
    },
    {
      "mesh": 2,
      "name": "Plane.001",
      "scale": [
        5.630000114440918,
        1,
        4.230000019073486
      ],
      "translation": [
        4.20168924331665,
        -0.11576017737388611,
        3.236356019973755
      ]
    },
    {
      "mesh": 3,
      "name": "Cube.001",
      "scale": [
        3.049999713897705,
        0.23000001907348633,
        3.049999952316284
      ],
      "translation": [
        1.7421236038208008,
        0.5331690311431885,
        2.305720329284668
      ]
    },
    {
      "mesh": 4,
      "name": "Cube.002",
      "scale": [
        0.03999999910593033,
        0.18000000715255737,
        3.0199999809265137
      ],
      "translation": [
        4.712123394012451,
        0.531169056892395,
        2.23572039604187
      ]
    },
    {
      "mesh": 5,
      "name": "Cube.003",
      "rotation": [
        0,
        0.7071068286895752,
        0,
        0.7071068286895752
      ],
      "scale": [
        0.03999999910593033,
        0.1900000125169754,
        3.0799999237060547
      ],
      "translation": [
        1.6765732765197754,
        0.5309939980506897,
        5.2571234703063965
      ]
    }
  ],
  "materials": [
    {
      "doubleSided": true,
      "name": "Material",
      "pbrMetallicRoughness": {
        "baseColorFactor": [
          0.800000011920929,
          0.800000011920929,
          0.800000011920929,
          1
        ],
        "metallicFactor": 0,
        "roughnessFactor": 0.5
      }
    }
  ],
  "meshes": [
    {
      "name": "Cube",
      "primitives": [
        {
          "attributes": {
            "POSITION": 0,
            "NORMAL": 1,
            "TEXCOORD_0": 2
          },
          "indices": 3,
          "material": 0
        }
      ]
    },
    {
      "name": "Plane",
      "primitives": [
        {
          "attributes": {
            "POSITION": 4,
            "NORMAL": 5,
            "TEXCOORD_0": 6
          },
          "indices": 7
        }
      ]
    },
    {
      "name": "Plane.002",
      "primitives": [
        {
          "attributes": {
            "POSITION": 8,
            "NORMAL": 9,
            "TEXCOORD_0": 10
          },
          "indices": 11
        }
      ]
    },
    {
      "name": "Cube.002",
      "primitives": [
        {
          "attributes": {
            "POSITION": 12,
            "NORMAL": 13,
            "TEXCOORD_0": 14
          },
          "indices": 15
        }
      ]
    },
    {
      "name": "Cube.001",
      "primitives": [
        {
          "attributes": {
            "POSITION": 16,
            "NORMAL": 17,
            "TEXCOORD_0": 18
          },
          "indices": 19
        }
      ]
    },
    {
      "name": "Cube.003",
      "primitives": [
        {
          "attributes": {
            "POSITION": 20,
            "NORMAL": 21,
            "TEXCOORD_0": 22
          },
          "indices": 23
        }
      ]
    }
  ],
  "accessors": [
    {
      "bufferView": 0,
      "componentType": 5126,
      "count": 24,
      "max": [
        1.0074046850204468,
        1.5932395458221436,
        1.6791527271270752
      ],
      "min": [
        -0.9781277179718018,
        -0.9964231252670288,
        -1.2340822219848633
      ],
      "type": "VEC3"
    },
    {
      "bufferView": 1,
      "componentType": 5126,
      "count": 24,
      "type": "VEC3"
    },
    {
      "bufferView": 2,
      "componentType": 5126,
      "count": 24,
      "type": "VEC2"
    },
    {
      "bufferView": 3,
      "componentType": 5123,
      "count": 36,
      "type": "SCALAR"
    },
    {
      "bufferView": 4,
      "componentType": 5126,
      "count": 66049,
      "max": [
        1,
        0,
        1
      ],
      "min": [
        -1,
        0,
        -1
      ],
      "type": "VEC3"
    },
    {
      "bufferView": 5,
      "componentType": 5126,
      "count": 66049,
      "type": "VEC3"
    },
    {
      "bufferView": 6,
      "componentType": 5126,
      "count": 66049,
      "type": "VEC2"
    },
    {
      "bufferView": 7,
      "componentType": 5125,
      "count": 393216,
      "type": "SCALAR"
    },
    {
      "bufferView": 8,
      "componentType": 5126,
      "count": 4225,
      "max": [
        1,
        0,
        1
      ],
      "min": [
        -1,
        0,
        -1
      ],
      "type": "VEC3"
    },
    {
      "bufferView": 9,
      "componentType": 5126,
      "count": 4225,
      "type": "VEC3"
    },
    {
      "bufferView": 10,
      "componentType": 5126,
      "count": 4225,
      "type": "VEC2"
    },
    {
      "bufferView": 11,
      "componentType": 5123,
      "count": 24576,
      "type": "SCALAR"
    },
    {
      "bufferView": 12,
      "componentType": 5126,
      "count": 24,
      "max": [
        1.0096895694732666,
        0.7831534147262573,
        1.0030816793441772
      ],
      "min": [
        -1.1027473211288452,
        -1.2294671535491943,
        -1.0659291744232178
      ],
      "type": "VEC3"
    },
    {
      "bufferView": 13,
      "componentType": 5126,
      "count": 24,
      "type": "VEC3"
    },
    {
      "bufferView": 14,
      "componentType": 5126,
      "count": 24,
      "type": "VEC2"
    },
    {
      "bufferView": 15,
      "componentType": 5123,
      "count": 36,
      "type": "SCALAR"
    },
    {
      "bufferView": 16,
      "componentType": 5126,
      "count": 24,
      "max": [
        0.9999642372131348,
        0.9997917413711548,
        1.0000509023666382
      ],
      "min": [
        -2.5600647926330566,
        -1.0004667043685913,
        -1.06046462059021
      ],
      "type": "VEC3"
    },
    {
      "bufferView": 17,
      "componentType": 5126,
      "count": 24,
      "type": "VEC3"
    },
    {
      "bufferView": 18,
      "componentType": 5126,
      "count": 24,
      "type": "VEC2"
    },
    {
      "bufferView": 19,
      "componentType": 5123,
      "count": 36,
      "type": "SCALAR"
    },
    {
      "bufferView": 20,
      "componentType": 5126,
      "count": 24,
      "max": [
        1.6586651802062988,
        0.9999953508377075,
        0.9999998807907104
      ],
      "min": [
        -0.9999946355819702,
        -1.000006914138794,
        -1.069202184677124
      ],
      "type": "VEC3"
    },
    {
      "bufferView": 21,
      "componentType": 5126,
      "count": 24,
      "type": "VEC3"
    },
    {
      "bufferView": 22,
      "componentType": 5126,
      "count": 24,
      "type": "VEC2"
    },
    {
      "bufferView": 23,
      "componentType": 5123,
      "count": 36,
      "type": "SCALAR"
    }
  ],
  "bufferViews": [
    {
      "buffer": 0,
      "byteLength": 288,
      "byteOffset": 0,
      "target": 34962
    },
    {
      "buffer": 0,
      "byteLength": 288,
      "byteOffset": 288,
      "target": 34962
    },
    {
      "buffer": 0,
      "byteLength": 192,
      "byteOffset": 576,
      "target": 34962
    },
    {
      "buffer": 0,
      "byteLength": 72,
      "byteOffset": 768,
      "target": 34963
    },
    {
      "buffer": 0,
      "byteLength": 792588,
      "byteOffset": 840,
      "target": 34962
    },
    {
      "buffer": 0,
      "byteLength": 792588,
      "byteOffset": 793428,
      "target": 34962
    },
    {
      "buffer": 0,
      "byteLength": 528392,
      "byteOffset": 1586016,
      "target": 34962
    },
    {
      "buffer": 0,
      "byteLength": 1572864,
      "byteOffset": 2114408,
      "target": 34963
    },
    {
      "buffer": 0,
      "byteLength": 50700,
      "byteOffset": 3687272,
      "target": 34962
    },
    {
      "buffer": 0,
      "byteLength": 50700,
      "byteOffset": 3737972,
      "target": 34962
    },
    {
      "buffer": 0,
      "byteLength": 33800,
      "byteOffset": 3788672,
      "target": 34962
    },
    {
      "buffer": 0,
      "byteLength": 49152,
      "byteOffset": 3822472,
      "target": 34963
    },
    {
      "buffer": 0,
      "byteLength": 288,
      "byteOffset": 3871624,
      "target": 34962
    },
    {
      "buffer": 0,
      "byteLength": 288,
      "byteOffset": 3871912,
      "target": 34962
    },
    {
      "buffer": 0,
      "byteLength": 192,
      "byteOffset": 3872200,
      "target": 34962
    },
    {
      "buffer": 0,
      "byteLength": 72,
      "byteOffset": 3872392,
      "target": 34963
    },
    {
      "buffer": 0,
      "byteLength": 288,
      "byteOffset": 3872464,
      "target": 34962
    },
    {
      "buffer": 0,
      "byteLength": 288,
      "byteOffset": 3872752,
      "target": 34962
    },
    {
      "buffer": 0,
      "byteLength": 192,
      "byteOffset": 3873040,
      "target": 34962
    },
    {
      "buffer": 0,
      "byteLength": 72,
      "byteOffset": 3873232,
      "target": 34963
    },
    {
      "buffer": 0,
      "byteLength": 288,
      "byteOffset": 3873304,
      "target": 34962
    },
    {
      "buffer": 0,
      "byteLength": 288,
      "byteOffset": 3873592,
      "target": 34962
    },
    {
      "buffer": 0,
      "byteLength": 192,
      "byteOffset": 3873880,
      "target": 34962
    },
    {
      "buffer": 0,
      "byteLength": 72,
      "byteOffset": 3874072,
      "target": 34963
    }
  ],
  "buffers": [
    {
      "uri": "practice_data.bin",
      "byteLength": 3874144
    }
  ]
}