<svg xmlns="http://www.w3.org/2000/svg" xmlns:xlink="http://www.w3.org/1999/xlink" width="1587" zoomAndPan="magnify" viewBox="0 0 1190.25 1683.749949" height="2245" preserveAspectRatio="xMidYMid meet" version="1.0"><defs><clipPath id="b4da12d849"><path d="M 0 0.40625 L 1189.5 0.40625 L 1189.5 1683.09375 L 0 1683.09375 Z M 0 0.40625 " clip-rule="nonzero"/></clipPath><clipPath id="23addbadb3"><path d="M 0 0.40625 L 1189.199219 0.40625 L 1189.199219 1682.667969 L 0 1682.667969 Z M 0 0.40625 " clip-rule="nonzero"/></clipPath></defs><g clip-path="url(#b4da12d849)"><path fill="#ffffff" d="M 0 0.40625 L 1189.5 0.40625 L 1189.5 1683.09375 L 0 1683.09375 Z M 0 0.40625 " fill-opacity="1" fill-rule="nonzero"/></g><g clip-path="url(#23addbadb3)"><path fill="#ffffff" d="M 0 0.40625 L 1189.199219 0.40625 L 1189.199219 1682.667969 L 0 1682.667969 Z M 0 0.40625 " fill-opacity="1" fill-rule="nonzero"/></g><path stroke-linecap="butt" transform="matrix(0.749338, 0, 0, 0.749338, 75.163588, 87.713531)" fill="none" stroke-linejoin="miter" d="M 0.00063375 0.502194 L 1364.392342 0.502194 " stroke="#000000" stroke-width="1" stroke-opacity="1" stroke-miterlimit="4"/><path stroke-linecap="butt" transform="matrix(0.749338, -0.000000000000000279, 0.000000000000000279, 0.749338, 78.774788, 1562.821283)" fill="none" stroke-linejoin="miter" d="M -0.00180221 0.499147 L 1359.573155 0.499147 " stroke="#000000" stroke-width="1" stroke-opacity="1" stroke-miterlimit="4"/><path stroke-linecap="butt" transform="matrix(0, -0.749338, 0.749338, 0, 74.785121, 1563.192185)" fill="none" stroke-linejoin="miter" d="M 0.00103944 0.500489 L 1967.570945 0.500489 " stroke="#000000" stroke-width="1" stroke-opacity="1" stroke-miterlimit="4"/><path stroke-linecap="round" transform="matrix(0, -0.749338, 0.749338, 0, 1097.181327, 1563.195711)" fill="none" stroke-linejoin="miter" d="M 0.500973 0.498254 L 1968.050027 0.498254 " stroke="#000000" stroke-width="1" stroke-opacity="1" stroke-miterlimit="4"/><path stroke-linecap="round" transform="matrix(0, -0.749338, 0.749338, 0, 156.625374, 1563.192185)" fill="none" stroke-linejoin="miter" d="M 0.501481 0.499943 L 1967.070503 0.499943 " stroke="#000000" stroke-width="1" stroke-opacity="1" stroke-miterlimit="4"/></svg>